<svg id="Слой_1" data-name="Слой 1" xmlns="http://www.w3.org/2000/svg" viewBox="0 0 14.5 14.5"><defs><style>.cls-1{fill:#d0bc7a;}</style></defs><title>bag</title><path class="cls-1" d="M13,14.75H2A1.75,1.75,0,0,1,.25,13V6.33A1.75,1.75,0,0,1,2,4.58H3.72V4a3.78,3.78,0,0,1,7.57,0V4.58H13a1.75,1.75,0,0,1,1.75,1.75V13A1.75,1.75,0,0,1,13,14.75ZM2,6.08a0.25,0.25,0,0,0-.25.25V13a0.25,0.25,0,0,0,.25.25H13A0.25,0.25,0,0,0,13.25,13V6.33A0.25,0.25,0,0,0,13,6.08H11.28V8.37H9.78V6.08H5.22V8.37H3.72V6.08H2Zm3.22-1.5H9.78V4A2.28,2.28,0,0,0,5.22,4V4.58Z" transform="translate(-0.25 -0.25)"/></svg>