<svg id="Слой_1" data-name="Слой 1" xmlns="http://www.w3.org/2000/svg" viewBox="0 0 20.17 11.5"><defs><style>.cls-1{opacity:0.4;}.cls-2{fill:#21242e;}</style></defs><title>eye</title><g class="cls-1"><path class="cls-2" d="M11,11.75c-4,0-9.3-5-9.52-5.21L0.92,6l0.56-.54C1.7,5.25,7,.25,11,0.25s9.3,5,9.52,5.21L21.08,6l-0.56.54C20.3,6.75,15,11.75,11,11.75ZM3.12,6C4.55,7.25,8.27,10.25,11,10.25s6.45-3,7.88-4.25C17.45,4.75,13.73,1.75,11,1.75S4.55,4.75,3.12,6Z" transform="translate(-0.92 -0.25)"/></g><g class="cls-1"><path class="cls-2" d="M11,8.75A2.75,2.75,0,1,1,13.75,6,2.75,2.75,0,0,1,11,8.75Zm0-4A1.25,1.25,0,1,0,12.25,6,1.25,1.25,0,0,0,11,4.75Z" transform="translate(-0.92 -0.25)"/></g></svg>