<svg id="Слой_1" data-name="Слой 1" xmlns="http://www.w3.org/2000/svg" viewBox="0 0 15.5 13.8"><defs><style>.cls-1{fill:#d0bc7a;}</style></defs><title>heart</title><path class="cls-1" d="M8,14.05L1.55,7.72a4.31,4.31,0,0,1-1.3-3.1,4.37,4.37,0,0,1,1.3-3.1,4.48,4.48,0,0,1,6.26,0L8,1.71l0.18-.18A4.4,4.4,0,0,1,9.62.58,4.51,4.51,0,0,1,13,.58a4.43,4.43,0,0,1,1.44.94h0a4.33,4.33,0,0,1,0,6.19ZM4.68,1.75A3,3,0,0,0,2.6,2.6a2.83,2.83,0,0,0,0,4.05L8,11.95l5.4-5.3A2.87,2.87,0,0,0,14,5.72a2.81,2.81,0,0,0,0-2.19A2.87,2.87,0,0,0,13.4,2.6a2.93,2.93,0,0,0-1-.62,3,3,0,0,0-2.25,0,2.91,2.91,0,0,0-1,.63L8,3.81,6.76,2.6A3,3,0,0,0,4.68,1.75Z" transform="translate(-0.25 -0.25)"/></svg>