<svg aria-hidden="true" style="position: absolute; width: 0; height: 0; overflow: hidden;" version="1.1" xmlns="http://www.w3.org/2000/svg" xmlns:xlink="http://www.w3.org/1999/xlink">
<defs>
<symbol id="icon-arrow" viewBox="0 0 54 32">
<path fill="#d0bc7a" style="fill: var(--color, #d0bc7a)" d="M26.853 32l-26.853-26.853 5.147-5.147 21.706 21.706 21.706-21.706 5.147 5.147-26.853 26.853z"></path>
</symbol>
<symbol id="icon-bag" viewBox="0 0 32 32">
<path fill="#d0bc7a" style="fill: var(--color, #d0bc7a)" d="M28.138 32h-24.276c-2.133 0-3.862-1.729-3.862-3.862v0-14.72c0-2.133 1.729-3.862 3.862-3.862v0h3.796v-1.28c0-4.613 3.74-8.353 8.353-8.353s8.353 3.74 8.353 8.353v0 1.28h3.774c2.133 0 3.862 1.729 3.862 3.862v0 14.72c0 2.133-1.729 3.862-3.862 3.862v0zM3.862 12.866c-0.305 0-0.552 0.247-0.552 0.552v0 14.72c0 0.305 0.247 0.552 0.552 0.552v0h24.276c0.305 0 0.552-0.247 0.552-0.552v0-14.72c0-0.305-0.247-0.552-0.552-0.552v0h-3.796v5.054h-3.31v-5.054h-10.063v5.054h-3.31v-5.054h-3.796zM10.968 9.556h10.063v-1.28c0-2.779-2.253-5.032-5.032-5.032s-5.032 2.253-5.032 5.032v0 1.28z"></path>
</symbol>
<symbol id="icon-circle-arrow" viewBox="0 0 32 32">
<path fill="#d0bc7a" style="fill: var(--color, #d0bc7a)" d="M14.48 23.5c-0.828-0.001-1.499-0.672-1.499-1.5 0-0.414 0.168-0.789 0.439-1.060v0l4.94-4.94-4.94-4.94c-0.249-0.267-0.403-0.627-0.403-1.023 0-0.828 0.672-1.5 1.5-1.5 0.396 0 0.755 0.153 1.023 0.403l-0.001-0.001 6 6c0.271 0.271 0.439 0.646 0.439 1.060s-0.168 0.789-0.439 1.060l-6 6c-0.271 0.272-0.646 0.44-1.060 0.44h-0z"></path>
<path fill="#d0bc7a" style="fill: var(--color, #d0bc7a)" d="M16 32c-8.837 0-16-7.163-16-16s7.163-16 16-16c8.837 0 16 7.163 16 16v0c0 8.837-7.163 16-16 16v0zM16 3c-7.18 0-13 5.82-13 13s5.82 13 13 13c7.18 0 13-5.82 13-13v0c-0.011-7.175-5.825-12.989-12.999-13h-0.001z"></path>
</symbol>
<symbol id="icon-clock" viewBox="0 0 30 32">
<path fill="#fff" style="fill: var(--color, #fff)" d="M14.933 1.067c-8.234 0-14.933 6.699-14.933 14.933s6.699 14.933 14.933 14.933c8.234 0 14.933-6.699 14.933-14.933s-6.699-14.933-14.933-14.933zM14.933 27.947c-6.587 0-11.947-5.36-11.947-11.947s5.36-11.947 11.947-11.947c6.587 0 11.947 5.36 11.947 11.947s-5.36 11.947-11.947 11.947z"></path>
<path fill="#fff" style="fill: var(--color, #fff)" d="M15.2 9.333h-2.667v7.219l4.391 4.391 1.885-1.885-3.609-3.609v-6.115z"></path>
</symbol>
<symbol id="icon-eye" viewBox="0 0 56 32">
<path d="M28.049 32c-11.13 0-25.878-13.913-26.49-14.497l-1.558-1.503 1.558-1.503c0.612-0.584 15.36-14.497 26.49-14.497s25.878 13.913 26.49 14.497l1.558 1.503-1.558 1.503c-0.612 0.584-15.36 14.497-26.49 14.497zM6.122 16c3.979 3.478 14.33 11.826 21.927 11.826s17.948-8.348 21.927-11.826c-3.979-3.478-14.33-11.826-21.927-11.826s-17.948 8.348-21.927 11.826z"></path>
<path d="M28.049 23.652c-4.226 0-7.652-3.426-7.652-7.652s3.426-7.652 7.652-7.652c4.226 0 7.652 3.426 7.652 7.652v0c0 4.226-3.426 7.652-7.652 7.652v0zM28.049 12.522c-1.921 0-3.478 1.557-3.478 3.478s1.557 3.478 3.478 3.478c1.921 0 3.478-1.557 3.478-3.478v0c0-1.921-1.557-3.478-3.478-3.478v0z"></path>
</symbol>
<symbol id="icon-fb" viewBox="0 0 32 32">
<path fill="#d0bc7a" style="fill: var(--color, #d0bc7a)" d="M16 0c-8.836 0-16 7.207-16 16.097 0 8.033 5.85 14.691 13.501 15.903v-11.249h-4.064v-4.654h4.064v-3.546c0-4.037 2.389-6.264 6.042-6.264 1.751 0 3.584 0.314 3.584 0.314v3.959h-2.023c-1.984 0-2.605 1.243-2.605 2.516v3.018h4.434l-0.709 4.654h-3.725v11.249c7.65-1.206 13.501-7.866 13.501-15.9 0-8.889-7.164-16.097-16-16.097z"></path>
</symbol>
<symbol id="icon-heart" viewBox="0 0 36 32">
<path fill="#d0bc7a" style="fill: var(--color, #d0bc7a)" d="M17.971 32l-14.957-14.678c-1.861-1.817-3.015-4.35-3.015-7.153 0-0.012 0-0.025 0-0.037v0.002c0.007-2.813 1.158-5.355 3.013-7.187l0.001-0.001c1.871-1.828 4.433-2.956 7.258-2.956s5.387 1.128 7.26 2.958l-0.002-0.002 0.441 0.441 0.417-0.417c0.931-0.922 2.041-1.667 3.272-2.178l0.068-0.025c1.16-0.482 2.507-0.762 3.919-0.762s2.759 0.28 3.988 0.787l-0.070-0.025c1.297 0.531 2.406 1.268 3.341 2.182l-0.002-0.002c1.863 1.824 3.019 4.366 3.019 7.177s-1.155 5.352-3.017 7.175l-0.002 0.002zM10.272 3.478c-1.877 0.008-3.578 0.758-4.825 1.973l0.002-0.001c-1.221 1.193-1.978 2.856-1.978 4.696s0.757 3.503 1.977 4.694l0.001 0.001 12.522 12.29 12.522-12.29c0.582-0.604 1.053-1.32 1.375-2.112l0.016-0.045c0.326-0.749 0.515-1.622 0.515-2.539s-0.189-1.79-0.531-2.581l0.016 0.042c-0.338-0.837-0.809-1.553-1.393-2.159l0.002 0.002c-0.647-0.612-1.419-1.101-2.272-1.422l-0.047-0.015c-0.772-0.321-1.669-0.508-2.609-0.508s-1.837 0.187-2.655 0.525l0.046-0.017c-0.902 0.343-1.674 0.839-2.321 1.463l0.002-0.002-2.667 2.783-2.875-2.806c-1.245-1.213-2.946-1.963-4.822-1.971h-0.002z"></path>
</symbol>
<symbol id="icon-heart-fill" viewBox="0 0 38 32">
<path fill="#d0bc7a" style="fill: var(--color, #d0bc7a)" d="M27.609 0c-3.263 0.001-6.155 1.584-7.954 4.022l-0.019 0.027c-0.27 0.36-0.522 0.702-0.738 1.044-0.216-0.342-0.468-0.702-0.738-1.044-1.818-2.466-4.71-4.048-7.973-4.050h-0c-5.659 0.124-10.2 4.741-10.2 10.418 0 0.184 0.005 0.368 0.014 0.55l-0.001-0.025c0 6.821 5.597 13.246 18.124 20.859 0.218 0.134 0.482 0.214 0.765 0.214s0.547-0.079 0.771-0.217l-0.006 0.004c12.598-7.595 18.124-14.020 18.124-20.859 0.008-0.157 0.013-0.34 0.013-0.525 0-5.671-4.53-10.284-10.17-10.418l-0.012-0z"></path>
</symbol>
<symbol id="icon-inst" viewBox="0 0 32 32">
<path fill="#d0bc7a" style="fill: var(--color, #d0bc7a)" d="M29.634 10.369c-0.017-1.154-0.23-2.298-0.639-3.377-0.715-1.842-2.17-3.299-4.012-4.012-1.065-0.401-2.191-0.616-3.331-0.64-1.466-0.066-1.931-0.084-5.652-0.084s-4.198 0-5.653 0.084c-1.138 0.024-2.264 0.239-3.329 0.64-1.842 0.713-3.299 2.17-4.012 4.012-0.401 1.065-0.617 2.191-0.638 3.33-0.066 1.467-0.085 1.932-0.085 5.653s0 4.197 0.085 5.653c0.023 1.14 0.238 2.264 0.638 3.332 0.715 1.841 2.17 3.298 4.014 4.011 1.061 0.414 2.187 0.649 3.33 0.686 1.467 0.066 1.932 0.085 5.653 0.085s4.198 0 5.653-0.085c1.138-0.023 2.264-0.238 3.331-0.638 1.842-0.715 3.298-2.171 4.012-4.012 0.401-1.067 0.616-2.191 0.638-3.332 0.066-1.466 0.085-1.931 0.085-5.653-0.003-3.721-0.003-4.194-0.088-5.652zM15.991 23.013c-3.892 0-7.045-3.153-7.045-7.045s3.153-7.045 7.045-7.045c3.889 0 7.045 3.153 7.045 7.045s-3.156 7.045-7.045 7.045zM23.316 10.305c-0.91 0-1.643-0.735-1.643-1.643s0.733-1.643 1.643-1.643c0.907 0 1.641 0.734 1.641 1.643s-0.735 1.643-1.641 1.643z"></path>
</symbol>
<symbol id="icon-location" viewBox="0 0 27 32">
<path fill="#fff" style="fill: var(--color, #fff)" d="M13.717 19.046c3.362 0 6.095-2.734 6.095-6.095s-2.734-6.095-6.095-6.095c-3.362 0-6.095 2.734-6.095 6.095s2.734 6.095 6.095 6.095zM13.717 9.903c1.681 0 3.048 1.367 3.048 3.048s-1.367 3.048-3.048 3.048c-1.681 0-3.048-1.367-3.048-3.048s1.367-3.048 3.048-3.048z"></path>
<path fill="#fff" style="fill: var(--color, #fff)" d="M12.83 30.955c0.265 0.189 0.574 0.283 0.884 0.283s0.619-0.094 0.884-0.283c0.463-0.328 11.351-8.189 11.307-18.002 0-6.722-5.469-12.19-12.19-12.19s-12.19 5.469-12.19 12.183c-0.044 9.821 10.843 17.682 11.307 18.010zM13.714 3.81c5.042 0 9.143 4.101 9.143 9.15 0.032 6.763-6.686 12.835-9.143 14.827-2.455-1.993-9.175-8.067-9.143-14.834 0-5.042 4.101-9.143 9.143-9.143z"></path>
</symbol>
<symbol id="icon-mail" viewBox="0 0 34 32">
<path fill="#fff" style="fill: var(--color, #fff)" d="M2.463 1.231h29.539c0.435 0 0.852 0.173 1.16 0.481s0.48 0.725 0.48 1.16v26.256c0 0.435-0.173 0.853-0.48 1.16s-0.725 0.481-1.16 0.481h-29.539c-0.435 0-0.853-0.173-1.16-0.481s-0.481-0.725-0.481-1.16v-26.256c0-0.435 0.173-0.853 0.481-1.16s0.725-0.481 1.16-0.481zM30.361 8.185l-13.010 11.651-13.246-11.687v19.338h26.256v-19.302zM4.943 4.513l12.39 10.933 12.211-10.933h-24.601z"></path>
</symbol>
<symbol id="icon-men" viewBox="0 0 27 32">
<path fill="#d0bc7a" style="fill: var(--color, #d0bc7a)" d="M7.429 10.059c0-3.372 2.787-6.154 6.285-6.154s6.285 2.782 6.285 6.154c0 3.372-2.787 6.154-6.285 6.154s-6.285-2.782-6.285-6.154zM13.714 0.476c-5.338 0-9.713 4.264-9.713 9.582s4.376 9.582 9.713 9.582c5.338 0 9.713-4.264 9.713-9.582s-4.376-9.582-9.713-9.582zM5.429 31.236c0-3.399 2.755-6.154 6.154-6.154h4.261c3.399 0 6.154 2.755 6.154 6.154h3.429c0-5.292-4.29-9.582-9.582-9.582h-4.261c-5.292 0-9.582 4.29-9.582 9.582h3.429z"></path>
</symbol>
<symbol id="icon-phone" viewBox="0 0 32 32">
<path fill="#d0bc7a" style="fill: var(--color, #d0bc7a)" d="M24.225 32c-0.124 0.002-0.27 0.003-0.416 0.003-1.587 0-3.14-0.148-4.645-0.431l0.155 0.024c-4.971-0.695-9.312-2.984-12.583-6.325l-0.004-0.004c-3.349-3.28-5.639-7.63-6.316-12.496l-0.013-0.114c-0.244-1.696-0.384-3.655-0.384-5.647 0-1.929 0.131-3.827 0.385-5.687l-0.024 0.216 0.213-1.541h7.49c0.001 0 0.002 0 0.003 0 2.862 0 5.294 1.845 6.17 4.41l0.014 0.046 0.924 2.75c0.11 0.326 0.173 0.701 0.173 1.091 0 0.995-0.411 1.893-1.073 2.535l-0.001 0.001c-0.482 0.466-0.781 1.118-0.781 1.84 0 0.65 0.242 1.243 0.641 1.694l-0.002-0.003 3.413 3.84c0.411 0.467 1.009 0.761 1.677 0.761 0.036 0 0.071-0.001 0.106-0.002l-0.005 0c0.698-0.054 1.304-0.402 1.703-0.919l0.004-0.006c0.619-0.843 1.607-1.384 2.721-1.384 0.384 0 0.752 0.064 1.096 0.182l-0.024-0.007 2.655 0.877c2.611 0.89 4.456 3.321 4.456 6.184 0 0.001 0 0.002 0 0.003v-0 7.514l-1.541 0.19c-1.841 0.24-3.988 0.386-6.165 0.403l-0.022 0zM3.745 3.556c-0.127 1.092-0.2 2.356-0.2 3.638 0 1.677 0.124 3.325 0.364 4.935l-0.022-0.182c0.571 4.258 2.52 7.981 5.378 10.782l0.003 0.003c2.811 2.857 6.544 4.8 10.716 5.347l0.093 0.010c1.426 0.22 3.072 0.345 4.747 0.345 1.284 0 2.551-0.074 3.796-0.217l-0.152 0.014v-4.314c0-0.004 0-0.009 0-0.014 0-1.297-0.833-2.399-1.994-2.801l-0.021-0.006-2.655-0.877c-0.922 1.389-2.457 2.308-4.21 2.37l-0.009 0c-0.090 0.005-0.195 0.008-0.301 0.008-1.718 0-3.261-0.752-4.316-1.945l-0.005-0.006-3.461-3.911c-0.968-1.074-1.561-2.504-1.561-4.072 0-1.724 0.716-3.28 1.867-4.389l0.002-0.002-0.901-2.702c-0.408-1.181-1.51-2.015-2.807-2.015-0.005 0-0.010 0-0.014 0h-4.337z"></path>
</symbol>
<symbol id="icon-phone-2" viewBox="0 0 30 32">
<path fill="#fff" style="fill: var(--color, #fff)" d="M10.563 13.813c1.557 2.735 3.822 5 6.557 6.557l1.467-2.054c0.236-0.33 0.585-0.563 0.98-0.653s0.811-0.033 1.167 0.162c2.347 1.282 4.938 2.054 7.604 2.263 0.416 0.033 0.804 0.222 1.088 0.528s0.441 0.709 0.441 1.126v7.404c0 0.411-0.152 0.807-0.428 1.112s-0.654 0.497-1.062 0.539c-0.88 0.091-1.766 0.136-2.658 0.136-14.203 0-25.719-11.515-25.719-25.719 0-0.893 0.045-1.779 0.136-2.658 0.042-0.409 0.234-0.787 0.539-1.063s0.701-0.428 1.112-0.427h7.404c0.417-0 0.819 0.157 1.126 0.44s0.495 0.672 0.528 1.088c0.209 2.666 0.981 5.258 2.263 7.604 0.195 0.356 0.253 0.771 0.162 1.167s-0.323 0.744-0.653 0.98l-2.054 1.467zM6.378 12.723l3.153-2.252c-0.895-1.931-1.508-3.981-1.82-6.086h-4.375c-0.010 0.275-0.015 0.553-0.015 0.83-0.002 12.371 10.027 22.4 22.398 22.4 0.277 0 0.554-0.005 0.829-0.016v-4.375c-2.105-0.313-4.155-0.926-6.086-1.82l-2.252 3.153c-0.907-0.352-1.787-0.768-2.635-1.244l-0.096-0.055c-3.255-1.852-5.95-4.547-7.802-7.802l-0.055-0.096c-0.476-0.848-0.892-1.728-1.244-2.635z"></path>
</symbol>
<symbol id="icon-search" viewBox="0 0 32 32">
<path fill="#d0bc7a" style="fill: var(--color, #d0bc7a)" d="M29.448 32l-6.381-6.116c-2.297 1.511-5.114 2.411-8.141 2.411-0.101 0-0.201-0.001-0.301-0.003l0.015 0c-0.058 0.001-0.127 0.001-0.197 0.001-7.861 0-14.255-6.278-14.443-14.094l-0-0.017c0.148-7.865 6.558-14.183 14.445-14.183 0.069 0 0.137 0 0.205 0.001l-0.010-0c0.058-0.001 0.126-0.001 0.195-0.001 7.886 0 14.296 6.319 14.444 14.17l0 0.014c0.001 0.052 0.001 0.114 0.001 0.175 0 3.495-1.286 6.69-3.411 9.136l0.015-0.017 6.164 5.995zM14.64 3.612c-0.058-0.001-0.127-0.002-0.196-0.002-5.892 0-10.685 4.702-10.832 10.559l-0 0.014c0.147 5.87 4.94 10.572 10.832 10.572 0.069 0 0.138-0.001 0.206-0.002l-0.010 0c0.020 0 0.044 0 0.068 0 2.802 0 5.365-1.020 7.339-2.71l-0.015 0.013c2.234-1.91 3.645-4.725 3.66-7.871v-0.003c-0.147-5.87-4.94-10.573-10.832-10.573-0.077 0-0.154 0.001-0.231 0.002l0.011-0z"></path>
</symbol>
<symbol id="icon-vk" viewBox="0 0 56 32">
<path fill="#d0bc7a" style="fill: var(--color, #d0bc7a)" d="M53.544 2.28c0.374-1.24 0-2.149-1.765-2.149h-5.848c-1.488 0-2.168 0.787-2.541 1.651 0 0-2.974 7.251-7.187 11.952-1.36 1.368-1.981 1.8-2.723 1.8-0.371 0-0.909-0.432-0.909-1.672v-11.581c0-1.488-0.429-2.149-1.669-2.149h-9.189c-0.928 0-1.488 0.688-1.488 1.344 0 1.408 2.107 1.733 2.323 5.701v8.608c0 1.885-0.339 2.229-1.085 2.229-1.981 0-6.803-7.277-9.664-15.608-0.557-1.619-1.12-2.272-2.613-2.272h-5.845c-1.672 0-2.005 0.787-2.005 1.651 0 1.552 1.981 9.232 9.229 19.389 4.832 6.936 11.635 10.696 17.832 10.696 3.715 0 4.173-0.835 4.173-2.275v-5.243c0-1.669 0.355-2.005 1.531-2.005 0.864 0 2.352 0.437 5.821 3.779 3.963 3.963 4.619 5.741 6.846 5.741h5.845c1.669 0 2.504-0.835 2.024-2.483-0.525-1.64-2.419-4.027-4.931-6.851-1.365-1.611-3.405-3.344-4.026-4.211-0.867-1.117-0.616-1.611 0-2.603 0 0 7.125-10.029 7.866-13.44z"></path>
</symbol>
</defs>
</svg>
