<svg width="14" height="14" viewBox="0 0 14 14" fill="none" xmlns="http://www.w3.org/2000/svg">
<path d="M12.9647 4.53664C12.9573 4.03197 12.864 3.5313 12.6853 3.0593C12.3727 2.2533 11.736 1.61597 10.93 1.30397C10.464 1.12864 9.97132 1.03464 9.47265 1.02397C8.83132 0.995305 8.62799 0.987305 6.99999 0.987305C5.37199 0.987305 5.16332 0.987305 4.52665 1.02397C4.02865 1.03464 3.53599 1.12864 3.06999 1.30397C2.26399 1.61597 1.62665 2.2533 1.31465 3.0593C1.13932 3.5253 1.04465 4.01797 1.03532 4.51597C1.00665 5.15797 0.997986 5.3613 0.997986 6.9893C0.997986 8.6173 0.997986 8.8253 1.03532 9.46264C1.04532 9.9613 1.13932 10.4533 1.31465 10.9206C1.62732 11.726 2.26399 12.3633 3.07065 12.6753C3.53465 12.8566 4.02732 12.9593 4.52732 12.9753C5.16932 13.004 5.37265 13.0126 7.00065 13.0126C8.62865 13.0126 8.83732 13.0126 9.47398 12.9753C9.97198 12.9653 10.4647 12.8713 10.9313 12.696C11.7373 12.3833 12.374 11.746 12.6867 10.9406C12.862 10.474 12.956 9.98197 12.966 9.48264C12.9947 8.8413 13.0033 8.63797 13.0033 7.0093C13.002 5.3813 13.002 5.17464 12.9647 4.53664ZM6.99599 10.068C5.29332 10.068 3.91399 8.68864 3.91399 6.98597C3.91399 5.2833 5.29332 3.90397 6.99599 3.90397C8.69732 3.90397 10.078 5.2833 10.078 6.98597C10.078 8.68864 8.69732 10.068 6.99599 10.068ZM10.2007 4.50864C9.80265 4.50864 9.48198 4.1873 9.48198 3.78997C9.48198 3.39264 9.80265 3.0713 10.2007 3.0713C10.5973 3.0713 10.9187 3.39264 10.9187 3.78997C10.9187 4.1873 10.5973 4.50864 10.2007 4.50864Z" fill="#D0BC7A"/>
</svg>
