<svg width="12" height="14" viewBox="0 0 12 14" fill="none" xmlns="http://www.w3.org/2000/svg">
<path d="M6.00123 8.33272C7.4719 8.33272 8.6679 7.13672 8.6679 5.66606C8.6679 4.19539 7.4719 2.99939 6.00123 2.99939C4.53056 2.99939 3.33456 4.19539 3.33456 5.66606C3.33456 7.13672 4.53056 8.33272 6.00123 8.33272ZM6.00123 4.33272C6.73656 4.33272 7.33456 4.93072 7.33456 5.66606C7.33456 6.40139 6.73656 6.99939 6.00123 6.99939C5.2659 6.99939 4.6679 6.40139 4.6679 5.66606C4.6679 4.93072 5.2659 4.33272 6.00123 4.33272Z" fill="white"/>
<path d="M5.61332 13.5427C5.72932 13.6254 5.86465 13.6667 5.99999 13.6667C6.13532 13.6667 6.27065 13.6254 6.38665 13.5427C6.58932 13.3994 11.3527 9.96004 11.3333 5.66671C11.3333 2.72604 8.94065 0.333374 5.99999 0.333374C3.05932 0.333374 0.666654 2.72604 0.666654 5.66337C0.647321 9.96004 5.41065 13.3994 5.61332 13.5427ZM5.99999 1.66671C8.20599 1.66671 9.99999 3.46071 9.99999 5.67004C10.014 8.62871 7.07465 11.2854 5.99999 12.1567C4.92599 11.2847 1.98599 8.62737 1.99999 5.66671C1.99999 3.46071 3.79399 1.66671 5.99999 1.66671Z" fill="white"/>
</svg>
