<svg id="Слой_1" data-name="Слой 1" xmlns="http://www.w3.org/2000/svg" viewBox="0 0 13.5 13.5"><defs><style>.cls-1{fill:#d0bc7a;}</style></defs><title>phone</title><path class="cls-1" d="M10.47,13.75a10.55,10.55,0,0,1-2.07-.17,9.16,9.16,0,0,1-5.31-2.67A9.16,9.16,0,0,1,.42,5.59,17.59,17.59,0,0,1,.41.9L0.5,0.25H3.66A2.75,2.75,0,0,1,6.27,2.13L6.66,3.29a1.49,1.49,0,0,1-.38,1.53,1.08,1.08,0,0,0-.06,1.49L7.66,7.93a0.94,0.94,0,0,0,.75.32,1,1,0,0,0,.72-0.39,1.42,1.42,0,0,1,1.6-.51l1.12,0.37a2.75,2.75,0,0,1,1.88,2.61V13.5l-0.65.08A22.78,22.78,0,0,1,10.47,13.75Zm-8.64-12a14,14,0,0,0,.06,3.54A7.78,7.78,0,0,0,4.16,9.84a7.77,7.77,0,0,0,4.56,2.26,13.83,13.83,0,0,0,3.54.06V10.34a1.25,1.25,0,0,0-.85-1.19l-1.12-.37a2.22,2.22,0,0,1-1.78,1,2.43,2.43,0,0,1-1.95-.82L5.1,7.31a2.57,2.57,0,0,1,.13-3.57L4.85,2.6a1.25,1.25,0,0,0-1.19-.85H1.83Z" transform="translate(-0.25 -0.25)"/></svg>