<svg width="14" height="15" viewBox="0 0 14 15" fill="none" xmlns="http://www.w3.org/2000/svg">
<path d="M4.95133 6.47489C5.68115 7.75704 6.74296 8.81885 8.02511 9.54867L8.71267 8.58578C8.82323 8.43095 8.98672 8.32202 9.17218 8.27959C9.35765 8.23717 9.55223 8.26419 9.71911 8.35556C10.8191 8.95672 12.0339 9.31827 13.2837 9.41644C13.4787 9.4319 13.6608 9.5203 13.7935 9.66403C13.9263 9.80775 14 9.99623 14 10.1919V13.6623C14 13.8549 13.9286 14.0406 13.7996 14.1836C13.6706 14.3266 13.4931 14.4166 13.3016 14.4362C12.8893 14.479 12.474 14.5 12.0556 14.5C5.39778 14.5 0 9.10222 0 2.44444C0 2.026 0.021 1.61067 0.0637778 1.19844C0.0834203 1.00688 0.173432 0.829405 0.316392 0.700382C0.459352 0.571359 0.645094 0.499958 0.837667 0.5H4.30811C4.50377 0.499975 4.69225 0.573696 4.83597 0.706462C4.9797 0.839228 5.0681 1.02128 5.08356 1.21633C5.18173 2.46606 5.54328 3.68086 6.14444 4.78089C6.23581 4.94777 6.26283 5.14235 6.22041 5.32782C6.17798 5.51328 6.06905 5.67677 5.91422 5.78733L4.95133 6.47489ZM2.98978 5.96389L4.46756 4.90844C4.04816 4.00318 3.76083 3.04243 3.61433 2.05556H1.56333C1.55867 2.18467 1.55633 2.31456 1.55633 2.44444C1.55556 8.24356 6.25644 12.9444 12.0556 12.9444C12.1854 12.9444 12.3153 12.9421 12.4444 12.9367V10.8857C11.4576 10.7392 10.4968 10.4518 9.59156 10.0324L8.53611 11.5102C8.11118 11.3451 7.69845 11.1502 7.301 10.9269L7.25589 10.9012C5.73034 10.033 4.467 8.76966 3.59878 7.24411L3.57311 7.199C3.34982 6.80155 3.15489 6.38882 2.98978 5.96389Z" fill="white"/>
</svg>
